# xmcd
#
# Track frame offsets:
# 150
# 23990
# 39809
# 56900
# 75349
# 100064
# 121712
# 137702
# 160451
# 176293
# 203878
#
# Disc length: 3293 seconds
#
# Revision: 0
# Processed by: cddbd v1.5.2PL0 Copyright (c) Steve Scherf et al.
# Submitted via: CoinsHifi v1.9g contact@coinshifi.com
#
DISCID=830cdb0b
DTITLE=Souad Massi - Mesk elil
DYEAR=2005
DGENRE=Blues
TTITLE0=mesk elil
TTITLE1=kilYoum
TTITLE2=ilham
TTITLE3=manensa asli
TTITLE4=dar dgedi
TTITLE5=denya wezmen
TTITLE6=tell me why
TTITLE7=hagda wala akter
TTITLE8=khalouni
TTITLE9=malou
TTITLE10=mahli - remix
EXTD=
EXTT0=
EXTT1=
EXTT2=
EXTT3=
EXTT4=
EXTT5=
EXTT6=
EXTT7=
EXTT8=
EXTT9=
EXTT10=
PLAYORDER=
